<svg version="1.2" xmlns="http://www.w3.org/2000/svg" viewBox="0 0 805 176" width="805" height="176">
	<title>logo-svg</title>
	<style>
		tspan { white-space:pre } 
		.s0 { fill: #0000ff;stroke: #ca0033;stroke-linecap: round;stroke-linejoin: round;stroke-width: 1.5 } 
		.s1 { fill: #ffffff } 
		.s2 { fill: #00ff00;stroke: #0078d7;stroke-linecap: round;stroke-linejoin: round;stroke-width: 1.5 } 
		.t3 { font-size: 53px;fill: #bce1fe;font-family: "Trebuchet  MS" } 
		.s4 { fill: #0000ff;stroke: #000000;stroke-linecap: round;stroke-linejoin: round;stroke-width: 2.6 } 
		.s5 { fill: #00ff00;stroke: #000000;stroke-linecap: round;stroke-linejoin: round;stroke-width: 2.6 } 
	</style>
	<g id="Layer">
		<path id="Layer" class="s0" d="m41.6 65.2q0.5 1.4 0.6 2.9l-5.6 2.4 5.6-2.4q0.5 4.3-2.3 9.1l-22.5 11q-8.6-10.5-5.3-16.4 5.6-3.1 5.7-5l1.3-9q12.3-11.2 22.5 7.4z"/>
		<path id="Layer" fill-rule="evenodd" class="s0" d="m104.9 80.6q-20.5 10-37.9-6.6l-14.1 21.4-13-18.2q2.8-4.8 2.3-9.1-0.1-1.5-0.6-2.9-10.2-18.6-22.5-7.4 9.3-12.6 36.7-1.9 0.8 0.5 2.1 0.9-3.5-12.1 8.9-25.3 16.3-13.8 36.8-7 7.9 3.8 12.8 9 3.8-0.8 7.3-3.6 3.4-2.8 6.3-7.3 4.5-7.3 6.2-9.3 1.6-2 4.2-2.5 2.7-0.4 5.8 1.5 3.2 1.9 4.3 3.9 1.2 1.9 2.3 3.6 1.1 1.6 1.1 4.1 0 1.2-0.6 1.9l-2.7 2.7q0 1 0.6 1.8 0.5 0.5 2.5 1.7 1.8 1.3 2.7 3.3 0.9 2.1 0.5 4.2 0 0.3-0.2 0.7 16.8 24.1 1.6 24.9-0.2 0-0.4 0-0.9 0.5-3.3 1.2-2.3 0.6-5.8-1-3.5-1.6-4.9-2.3-1.4-0.6-4-4.2-2.6-3.5-5.6-5-3-1.5-10.2-2.7 1.2 19.4-19.2 29.5zm-29.9-46.7q-6.2 5.2-6.1 7.7 0.1 2.5 2.9 4.7 2.8 2.2 5.6 2.2 1.6 0 3-1.6 0.7-0.7 4.3-6.9 0.5-1.2 1.5-0.6 1.1 0.5 1.5 0.5 2.1 0 2.9-1.1 0.6-0.9 0.6-3.1 0-2.5-2.8-4.8-2.8-2.3-5.3-2.3-2 0-8.1 5.3zm27.1 7.2q1.6 0 2.5-0.7 1.1-0.7 1.1-2 0-2.2-1.7-3.7-1.5-1.4-3.3-1.4-0.5 0-1.3 0.1-0.8 0.1-1.3 2.8 0 2.2 1 3.5 1 1.4 3 1.4zm14.3-7.6q6.9 7.4 7.7 17.6-0.8-10.2-7.7-17.6zm41.5 31.6q1.8-1 2.9-2.3-1.1 1.3-2.9 2.3zm4.2-5q0.4-1.6 0-2.9 0.4 1.3 0 2.9zm0-2.9q-0.7-1.8-4-4.2 3.3 2.4 4 4.2zm-7.7-8.5q-0.4-1.9 0.8-4.6-1.2 2.7-0.8 4.6z"/>
		<path id="Layer" class="s1" d="m99.4 33.4q0.8-0.1 1.3-0.1 1.8 0 3.3 1.4 1.7 1.5 1.7 3.7 0 1.3-1.1 2-0.9 0.7-2.5 0.7-2 0-3-1.4-1-1.3-1-3.5 0.5-2.7 1.3-2.8zm-8.2 2.3q0 2.2-0.6 3.1-0.8 1.1-2.9 1.1-0.4 0-1.5-0.5-1-0.6-1.5 0.6-3.6 6.2-4.3 6.9-1.4 1.6-3 1.6-2.8 0-5.6-2.2-2.8-2.2-2.9-4.7-0.1-2.5 6.1-7.7 6.1-5.3 8.1-5.3 2.5 0 5.3 2.3 2.8 2.3 2.8 4.8z"/>
	</g>
	<g id="Layer">
		<path id="Layer" fill-rule="evenodd" class="s2" d="m68.4 83q9.6-4.4 20.8-2.4 11 2.1 18.7 9.6 11.2 10.9 7.6 24 2.8-1.1 8-3.3 6.1-2.5 16.7-2.2 5.7 0.1 6.6 1.8-4.4 0.2-9.6 4.5-5.9 5-7.1 9.9 4.3 3.1 6.8 6.9 2.4 3.8 1.9 10.3-0.5 6.4-8.2 14.6-3.5 3.9-6.7 4.3l-0.6 0.1q-3.6 0.4-7.1-2.7-5.2-4.4-7.5-14.7-1.1-5.6-1.6-8.3-0.4-1.9-0.8-3.5-10.1 9.5-26.8 8.8-22.9-3.3-29.3-22.7-0.9-4-0.6-8-1.9 0.3-3.9 1.3-2.5 1.4-5.8 4.4-3.7 3.4-5.5 4.6-3.3 2.3-6.5 2.4-4.5 0-9.3-4.2-4.6-4-6.6-9.4-2.2-5.8-0.6-11.1 0.5-1.7 2.8-6.1 1.9-3.8 2.2-6.2 0.1-0.7 0-4-0.1-2.5 0.4-3.9 0.8-2.1 3-3.7 1.3-1.1 4.4-2.6 2.4-1.2 3.8-1.7 2.3-0.7 4.2-0.5 3.4 0.4 6.4 3.8 1.1 1.3 4.7 6.7 3.3 4.9 7.4 7.9 3.4 2.5 6.9 3.5 4.5-5.3 10.8-8.2zm-6.8 30.8q3.3 0.2 5.6-1.3 1.3-0.9 1.8-3.1 0.2-0.9 0.3-8.1-0.2-1.2 0.9-1.3 1.2-0.2 1.5-0.5 1.7-1.2 1.9-2.5 0.1-1.1-0.9-2.9-1.2-2.1-4.7-2.4-3.3-0.3-5.3 1.1-1.7 1.1-4.3 9-2.6 7.8-1.4 9.8 1.2 2 4.6 2.2zm17.7-27.1q-0.4 0.3-1 0.8-0.6 0.5 0.2 3.1 1 1.8 2.5 2.3 1.5 0.6 3.1-0.5 1.3-0.9 1.8-2 0.5-1.2-0.1-2.3-1-1.8-3.1-2.1-1.9-0.3-3.4 0.7zm-26 10.8q1.9-3.5 4.3-6.3-2.4 2.8-4.3 6.3zm59.1 33l7.7 6.2zm-69.5-28.5q3.1 0 5.2 0.2-2.1-0.2-5.2-0.2-3.2-0.1-4.2 0 1-0.1 4.2 0z"/>
		<path id="Layer" class="s2" d="m154.6 121.1q-0.1 3.9 1.5 5.4 0.5 0.6 1.7 1.2 1.3 0.7 1.8 1.1 2.1 1.6 2 5-0.2 2.8-1.8 5.7-7.7 14.4-28.5 23.7-3.8 1.6-5.7 1-1.5-0.5-2.1-2.1-0.2-0.5-0.2-1l0.6-0.1q3.2-0.4 6.7-4.3 7.7-8.2 8.2-14.6 0.5-6.5-1.9-10.3-2.5-3.8-6.8-6.9 1.2-4.9 7.1-9.9 5.2-4.3 9.6-4.5 1.1 0.6 2.6 1.2 3.6 1.6 4.5 3.5 0.9 1.5 0.7 5.9z"/>
		<path id="Layer" class="s1" d="m85.9 90.4q-0.5 1.1-1.8 2-1.6 1.1-3.1 0.5-1.5-0.5-2.5-2.3-0.8-2.6-0.2-3.1 0.6-0.5 1-0.8 1.5-1 3.4-0.7 2.1 0.3 3.1 2.1 0.6 1.1 0.1 2.3zm-23.2 2.4q2-1.4 5.3-1.1 3.5 0.3 4.7 2.4 1 1.8 0.9 2.9-0.2 1.3-1.9 2.5-0.3 0.3-1.5 0.5-1.1 0.1-0.9 1.3-0.1 7.2-0.3 8.1-0.5 2.2-1.8 3.1-2.3 1.5-5.6 1.3-3.4-0.2-4.6-2.2-1.2-2 1.4-9.8 2.6-7.9 4.3-9z"/>
	</g>
	<text id="Modded" style="transform: matrix(1,0,0,1,593.203,131.716)" >
		<tspan x="0" y="0" class="t3">M</tspan><tspan  y="0" class="t3">o</tspan><tspan  y="0" class="t3">d</tspan><tspan  y="0" class="t3">d</tspan><tspan  y="0" class="t3">e</tspan><tspan  y="0" class="t3">d
</tspan>
	</text>
	<g id="Layer">
		<path id="Layer" class="s4" d="m252 40.7l-39.8 82.7h-22.7l-8.9-24.1-13 24.1-20.2 1.4-22.9-90.5 29.2-2.3 12.6 44.9 20.2-20.2 15.9 21.8 19.1-44.5z"/>
		<path id="Layer" fill-rule="evenodd" class="s5" d="m267.4 92.6l-7.5 35.7h-12.3l14.5-71.3h12.9l-1.1 5.1q9.9-7.1 22.9-5.1l-1.1 10.6q-21.5 1.4-28.3 25zm52.4 35.7q-0.6 0-1.4 0-0.9-0.1-1.9-0.2-23.4-2.7-21.6-24.3 2.8-21.7 28.3-21.6h22.7q0.7-13.5-10.8-14.1-11.6-0.7-14.2 6.3h-11.7q4.1-17 24.9-17.1 25.2-0.2 24.4 22.7-0.7 22.7-13.4 38.3-11.3 10.1-25.3 10zm24.7-35.7h-25.5q-10.6 1.6-12.3 11.2-1.8 13.7 15.7 13.2 18.5-0.5 22.1-24.4zm79.1 18.8q-8.8 12.9-25.2 15.6-14.4 2.6-23.3-5.8l-6.6 27.4h-12.5q11.6-55.8 14-63.5 7.7-23.5 27.8-28.4 20.1-5 28.3 6.3 8.2 11.2 6.2 23.8-2 12.6-8.7 24.6zm-41.9-18q-3.9 24.6 16.1 23.5 16.2-2.6 21.6-29.6 3.6-19-12.4-20.5-19.8-0.3-25.3 26.6zm121.8-6.6q-2 12.6-8.7 24.6-8.8 12.9-25.2 15.6-14.4 2.6-23.4-5.8l-6.5 27.4h-12.5q11.6-55.8 13.9-63.5 7.8-23.5 27.9-28.4 20.1-5 28.3 6.3 8.1 11.2 6.2 23.8zm-34.5 30.1q16.2-2.6 21.5-29.6 3.7-19-12.3-20.5-19.8-0.3-25.3 26.6-3.9 24.6 16.1 23.5zm49.2-19q-1.2 18.8 10.7 20 11.8 1.3 14-6.9h12.1q-2.5 17.3-25.8 17.4-10 0-15.6-4.6-8.1-6.9-7.6-19 0.4-12.2 2.6-19.4 1.2-5.2 3.1-9.5 2.5-5.5 6.1-9.2 0.9-1 1.9-1.9 11.1-9.6 30.2-7.9 19.2 1.6 18.3 22.5-0.3 7.9-2.9 18.5zm37.6-10.6q2.6-18.4-13.7-19.7-17.3 0.3-21.9 19.7zm33.7 5.3l-7.5 35.7h-12.4l14.6-71.3h12.9l-1.1 5.1q9.9-7.1 22.9-5.1l-1.1 10.6q-21.5 1.4-28.3 25z"/>
	</g>
</svg>
