<?xml version="1.0" standalone="yes"?>
<svg xmlns="http://www.w3.org/2000/svg" width="805" height="176">
<path style="fill:#010101; stroke:none;" d="M0 0L0 176L805 176L805 0L0 0z"/>
<path style="fill:#01fa06; stroke:none;" d="M54 51C43.8172 47.1584 25.9037 43.502 17.7238 53.213C15.0013 56.445 15.5184 60.3622 13.6829 63.9105C9.20002 72.5765 5.47352 77.134 11 87L12 87C13.0771 82.5904 10.3966 79.2999 10.9012 75.0401C11.7044 68.2614 23.3616 55.1 30.9846 59.1034C35.4962 61.4728 37.2509 66.7888 41 70C40.199 55.1906 29.1541 54.0099 18 58C31.1842 46.0032 41.8064 52.7562 57 55C52.7691 33.245 80.6083 18.3763 99 22.6798C107.911 24.7648 113.669 33.9208 123 30C117.519 37.8463 124.656 46.3951 124.653 55C124.649 67.7738 113.506 75.7036 104 82C113.483 87.2941 123.462 70.7382 127 64L139 108L117 113C116.997 89.8147 96.3567 75.471 74 80.5139C68.3622 81.7856 60.3367 89.6339 55 88.5965C40.9667 85.8685 37.6128 57.5455 19.2284 73.6373C15.2981 77.0775 16.3026 82.412 14.9568 87C11.2929 99.4904 5.94403 118.327 25 122.605C34.7724 124.799 41.0837 114.767 49 111C49.2418 139.826 85.9918 149.442 106 133C107.326 143.271 109.176 156.771 120 161C125.036 154.736 132.742 151.781 134.609 143C137.521 129.303 120.219 126.46 133.999 114.099C135.98 112.322 137.485 111.574 140 111C136.893 114.109 129.992 119.06 130.256 124C130.495 128.46 136.004 131.691 137.347 136C140.331 145.568 131.442 156.72 123 160C125.499 168.231 133.756 163.004 139 160.218C149.264 154.766 167.109 141.338 160 128C171.525 127.999 175.866 121.878 179 111L180 111C181.245 115.56 182.811 123.189 186.499 126.397C190.844 130.175 211.524 129.588 215.61 125.682C221.139 120.396 224.403 109.923 227.424 103C232.866 90.5291 239.165 78.1719 245.247 66C248.764 58.9614 255.264 50.0366 255.731 42.0046C255.9 39.1052 254.612 37.1909 251.941 36.1443C245.517 33.6263 224.557 26.8764 218.498 31.0278C215.393 33.1553 214.14 38.706 212.719 42C208.835 51.0013 205.194 60.1388 201 69C198.663 64.3068 192.246 51.8639 185.996 52.466C179.517 53.0903 172.352 63.6481 168 68C169.918 52.8202 163.34 43.8894 158.553 30C156.941 25.3234 157.941 20.5436 155.442 16.0008C152.302 10.2936 146.681 6.35837 140 7.1929C128.573 8.62033 128.717 25.3691 118.285 27.2323C114.009 27.9961 105.142 20.3916 100 19.4645C78.7463 15.6325 54.0689 26.9961 54 51z"/>
<path style="fill:#0106fa; stroke:none;" d="M123 30C129.27 29.9827 148.879 31.213 153.218 26.3966C158.653 20.3619 146.931 9.8425 141.001 10.3333C133.488 10.9552 126.847 24.3686 123 30z"/>
<path style="fill:#9e9eff; stroke:none;" d="M153 19L154 20L153 19M89 21L89 22L92 22L89 21z"/>
<path style="fill:#0106fa; stroke:none;" d="M57 55C45.995 52.454 26.0108 44.3202 19 58C28.8072 54.4387 40.97 56.2078 41 70C37.7054 65.994 35.3016 59.8205 29.9961 58.1034C21.9554 55.5011 15.3869 65.9204 12.0231 71.5139C9.40974 75.8597 12.8033 80.5131 12.1535 85C11.4417 89.9158 7.81529 93.9383 7.18519 99C5.46535 112.816 16.6617 129.375 32 125.581C37.269 124.278 41.5718 119.917 46 117C50.4732 142.979 83.4214 150.698 104 139C104.357 143.374 105.228 147.939 106.955 152C121.759 186.802 165 154.615 165 128L160 128C165.866 141.865 149.468 153.488 139 159.796C134.035 162.788 125.561 168.102 123 160C132.69 157.69 140.411 144.783 137.347 135C136.15 131.177 130.443 127.476 130.613 123.576C130.804 119.176 137.566 114.456 140 111C136.891 110.954 135.372 111.854 133.014 114.062C119.662 126.56 137.785 129.974 134.441 143C132.248 151.545 124.214 154.32 120 161C109.819 155.674 107.363 143.551 106 133C85.2254 146.254 49.6581 141.892 49 111C40.9331 113.676 34.3212 124.968 25 122.424C6.7413 117.44 11.2866 100.512 14.9568 88C16.6664 82.172 15.513 76.9036 21.044 72.9159C39.3212 59.7386 40.5516 86.4386 55 89.1497C60.5911 90.1988 69.9111 81.6694 76 80.2361C96.9542 75.3034 116.986 92.076 117 113L139 108C134.968 102.409 125.365 105.722 120 108C119.771 96.9571 114.317 87.538 104 83C113.351 75.2584 123.942 69.6127 124.787 56C125.361 46.7466 118.47 38.9439 123 30C113.515 33.0689 109.144 24.7797 100 22.6806C77.7811 17.5801 57.0025 32.1398 57 55z"/>
<path style="fill:#9e9eff; stroke:none;" d="M154 22L155 23L154 22z"/>
<path style="fill:#c6e5fe; stroke:none;" d="M85 39C91.5768 39.8613 92.3743 33.1639 86.8912 30.1836C81.1445 27.06 69.0579 35.6088 69.662 41.9853C70.2639 48.3382 78.3362 49.0387 81.7531 44.7762C83.1495 43.0343 84.0622 40.9999 85 39z"/>
<path style="fill:#9e9eff; stroke:none;" d="M86 29L87 30L86 29M79 30L80 31L79 30M142 31L142 32L145 32L142 31z"/>
<path style="fill:#0106fa; stroke:none;" d="M123 34L146 126L167.787 123.972L180 103C182.696 108.765 184.074 119.016 188.702 123.397C191.697 126.232 198.221 125 202 125C205.153 125 209.809 125.805 212.582 123.972C215.914 121.769 217.517 115.461 219.247 112C224.715 101.056 229.777 89.9406 235.247 79C239.384 70.7255 243.109 62.2754 247.247 54C248.9 50.6931 252.446 45.9704 252.292 42.1443C252.164 38.9876 248.41 38.5372 245.999 38.0008C240.593 36.7976 225.512 30.6536 220.699 34.0424C217.774 36.1021 216.503 41.8481 215.15 45C210.978 54.722 205.448 64.6926 203 75L201 75L187 55L186 55L167 74L155 31L123 34z"/>
<path style="fill:#9e9eff; stroke:none;" d="M76 32L77 33L76 32M116 32L117 33L116 32M129 32L129 33L132 33L129 32M75 33L76 34L75 33M90 33L91 34L90 33M99 33L98 35L99 33z"/>
<path style="fill:#c6e5fe; stroke:none;" d="M100.314 34.4614C96.9373 35.5857 99.4746 41.2771 102.721 40.2484C106.222 39.1395 103.505 33.3989 100.314 34.4614z"/>
<path style="fill:#9e9eff; stroke:none;" d="M101 33L102 34L101 33M123 33L124 34L123 33M225 33L226 34L225 33M74 34L75 35L74 34M103 34L104 35L103 34M62 35L63 36L62 35M104 35L105 36L104 35M234 35L235 36L234 35M105.333 37.6667L105.667 38.3333L105.333 37.6667M218 37L219 38L218 37M243 37L244 38L243 37M98 38L99 39L98 38M69 39L70 40L69 39M86 39L87 40L86 39M89 39L90 40L89 39M84 40L85 41L84 40M104 40L105 41L104 40M69 43L70 44L69 43M82 43L83 44L82 43M215 44L216 45L215 44M81 45L82 46L81 45M73 47L74 48L73 47M79 47L80 48L79 47M76.6667 48.3333L77.3333 48.6667L76.6667 48.3333M56 49L56 54L57 54L56 49M31.6667 50.3333L32.3333 50.6667L31.6667 50.3333M37.6667 50.3333L38.3333 50.6667L37.6667 50.3333z"/>
<path style="fill:#0106fa; stroke:none;" d="M163 50L164 51L163 50z"/>
<path style="fill:#9e9eff; stroke:none;" d="M127 51L128 52L127 51M160 51L161 52L160 51M212 51L213 52L212 51z"/>
<path style="fill:#0106fa; stroke:none;" d="M378 129C396.322 136.883 423.95 128.414 430 108L431 108C429.122 117.685 426.998 127.337 424.997 137C424.211 140.796 421.997 146.041 423.607 149.852C425.591 154.548 439.118 154.415 442.487 151.397C447.218 147.158 447.84 134.984 449 129C466.791 136.654 494.669 128.827 501 109L502 109C502.938 130.508 524.218 135.43 542 131.319C550.657 129.318 561.562 120.361 558.678 110.148C557.315 105.321 544.82 106.147 541.089 107.603C538.282 108.698 536.713 111.559 533.961 112.728C526.933 115.711 523.713 106.89 522 102C534.167 102 555.724 106.228 566.853 101.397C570.326 99.8888 570.584 95.2462 571.196 92C572.842 83.2715 573.911 69.8132 569.005 62.0039C556.111 41.4779 514.183 53.1739 508 74L507 74C502.967 34.6279 442.905 50.5746 438 82C435.005 72.144 434.418 63.5215 425.985 56.2137C411.177 43.3815 384.081 53.3276 373.529 67C359.047 85.7661 356.466 120.135 352.464 143C350.699 153.084 364.174 158.171 371.436 151.397C375.891 147.241 376.798 134.823 378 129M164 52L165 58L166 58L164 52M288 52.4252C281.482 53.2994 263.408 49.8146 258.857 54.6034C255.581 58.0505 255.502 66.4949 254.6 71C251.797 85.0125 248.803 98.9851 246 113C245.198 117.008 241.347 126.818 244.042 130.397C246.335 133.441 256.573 132.419 259.945 131.852C264.707 131.051 265.173 125.969 265.997 122C267.985 112.422 269.284 102.296 272.359 93C274.696 85.9328 279.382 78.9353 286 75.2276C289.7 73.1549 296.494 73.3045 298.987 69.686C306.077 59.3952 298.755 50.9827 288 52.4252M610 52.4252C603.482 53.2995 585.409 49.8146 580.857 54.6034C577.581 58.0504 577.502 66.4949 576.6 71C573.863 84.6819 570.936 98.3185 568.2 112C567.332 116.341 563.607 125.638 566.067 129.682C568.343 133.423 578.232 132.47 581.956 131.852C586.897 131.032 587.179 126.098 588 122C589.914 112.45 591.3 102.249 594.359 93C596.696 85.9328 601.382 78.9352 608 75.2276C611.7 73.1549 618.494 73.3045 620.987 69.686C628.077 59.3951 620.755 50.9827 610 52.4252M309 79C292.672 86.7837 281.827 111.635 298.015 125.787C306.453 133.163 319.509 133.563 330 131.533C352.073 127.262 359.764 105.538 362.424 86C364.492 70.8045 359.585 56.4548 343 53.4645C332.621 51.5932 319.182 52.7411 311.329 60.4676C306.71 65.0114 301.725 74.9879 309 79z"/>
<path style="fill:#9e9eff; stroke:none;" d="M26 54L27 55L26 54M29 54L30 55L29 54z"/>
<path style="fill:#01fa06; stroke:none;" d="M355 150L368.487 148.972L376 124C410.15 143.834 446.78 97.8183 429.676 66C419.495 47.0611 391.615 52.7305 379.093 66.0147C367.792 78.0039 365.956 95.6095 362.576 111C359.8 123.639 355.557 137.054 355 150z"/>
<path style="fill:#9e9eff; stroke:none;" d="M473 54L474 55L473 54z"/>
<path style="fill:#01fa06; stroke:none;" d="M426 150C429.816 150 436.277 151.222 439.567 148.972C444.549 145.566 445.814 129.745 447 124C481.146 143.832 518.121 97.9904 500.876 66C490.79 47.2894 462.614 52.5874 450.184 66.0401C439.874 77.1996 437.721 92.7587 434.576 107C431.476 121.033 427.141 135.663 426 150z"/>
<path style="fill:#9e9eff; stroke:none;" d="M128 55L129 56L128 55M287.667 55.3333L288.333 55.6667L287.667 55.3333z"/>
<path style="fill:#01fa06; stroke:none;" d="M276 59C274.915 53.9375 265.306 56 261 56L246 129C249.746 129 257.176 130.421 260.262 127.972C263.345 125.524 263.528 117.638 264.35 114C266.851 102.928 267.8 90.5052 274.637 81.0008C283.347 68.8939 297.861 72.8244 298 56C290.368 54.5882 283.08 55.8663 276 59z"/>
<path style="fill:#9e9eff; stroke:none;" d="M295 55L296 56L295 55M489 55L490 56L489 55M540 55L540 56L543 56L540 55z"/>
<path style="fill:#01fa06; stroke:none;" d="M556 110C552.234 110 547.747 109.341 544.089 110.318C540.512 111.273 538.462 114.813 534.996 116.103C527.186 119.008 519.972 111.567 519.764 104.019C519.595 97.9104 526.777 99.0003 531 99L557 99C560.571 98.9984 565.235 99.7706 566.968 95.8519C571.309 86.0387 571.185 66.4879 561.957 59.6489C551.313 51.7607 532.432 54.962 522.001 61.4676C510.256 68.7927 505.984 84.9502 505.09 98C504.586 105.345 504.237 113.715 508.649 119.999C520.356 136.674 554.081 131.841 556 110z"/>
<path style="fill:#9e9eff; stroke:none;" d="M548.667 55.3333L549.333 55.6667L548.667 55.3333M609.667 55.3333L610.333 55.6667L609.667 55.3333z"/>
<path style="fill:#01fa06; stroke:none;" d="M598 59C596.915 53.9375 587.307 56 583 56L568 129C571.747 129 579.176 130.421 582.262 127.972C586.155 124.882 586.469 113.647 587.4 109C591.031 90.8768 596.875 70.011 619 69L620 56C612.368 54.5882 605.08 55.8663 598 59z"/>
<path style="fill:#9e9eff; stroke:none;" d="M617 55L618 56L617 55M282 56L283 57L282 56M327 56L328 57L327 56z"/>
<path style="fill:#01fa06; stroke:none;" d="M345 80C330.314 83.4965 311.037 76.0945 299.529 89.1852C291.263 98.5888 291.253 117.293 302.04 124.751C310.495 130.596 323.595 130.648 333 127.3C351.026 120.885 357.161 102.299 359.285 85C360.744 73.1083 357.954 61.0099 345 57.3009C335.225 54.502 320.78 55.1674 313.529 63.2099C311.574 65.3788 307.16 71.2961 309.133 74.3966C312.618 79.8729 322.685 73.7327 326 71.6836C334.929 66.1646 341.58 71.598 345 80z"/>
<path style="fill:#9e9eff; stroke:none;" d="M341 56L342 57L341 56M420 56L421 57L420 56M604 56L605 57L604 56M18 57L19 58L18 57M462 57L463 58L462 57M209 58L210 59L209 58M260 58L261 59L260 58M460 58L461 59L460 58M582 58L583 59L582 58M129 59L130 60L129 59M318 59L319 60L318 59M458 59L459 60L458 59M525 59L526 60L525 59M243 61L244 62L243 61M455 61L456 62L455 61M17 63L18 64L17 63M130 63L131 64L130 63M242 63L243 64L242 63M259 63L260 64L259 63M297 63L298 64L297 63M581 63L582 64L581 63M619.333 63.6667L619.667 64.3333L619.333 63.6667z"/>
<path style="fill:#010101; stroke:none;" d="M126 64C122.916 72.4085 115.623 80.2467 107 83C112.22 92.117 119.498 96.4858 120 108L138 105C134.707 93.3098 133.671 73.3603 126 64z"/>
<path style="fill:#9e9eff; stroke:none;" d="M312 64L313 65L312 64M566 64L567 65L566 64M241 65L242 66L241 65M500 65L501 66L500 65M310 67L311 68L310 67M30.6667 68.3333L31.3333 68.6667L30.6667 68.3333M41 68L42 69L41 68M296 68L297 69L296 68M402 68L403 69L402 68z"/>
<path style="fill:#0106fa; stroke:none;" d="M403 68.4715C388.71 70.9975 383.521 86.2825 382.666 99C382.025 108.528 387.309 117.098 398 115.381C411.935 113.143 417.597 95.102 418.482 83C419.164 73.6817 412.468 66.7978 403 68.4715z"/>
<path style="fill:#9e9eff; stroke:none;" d="M409 68L410 69L409 68M473.667 68.3333L474.333 68.6667L473.667 68.3333z"/>
<path style="fill:#0106fa; stroke:none;" d="M475 68.4545C461.464 70.297 454.328 84.382 454.015 97C453.763 107.134 456.763 116.544 469 115.362C488.412 113.486 500.869 64.9331 475 68.4545z"/>
<path style="fill:#9e9eff; stroke:none;" d="M480 68L481 69L480 68M580 68L581 69L580 68M291 69L292 70L291 69M309 69L310 70L309 69M330.667 69.3333L331.333 69.6667L330.667 69.3333M335 69L336 70L335 69M447 69L448 70L447 69M502 69L503 70L502 69z"/>
<path style="fill:#0106fa; stroke:none;" d="M522 86L555 86C554.502 61.983 527.37 66.5232 522 86z"/>
<path style="fill:#9e9eff; stroke:none;" d="M545 69L546 70L545 69M568 69L569 70L568 69M613 69L614 70L613 69M24 70L25 71L24 70M339 70L340 71L339 70z"/>
<path style="fill:#010101; stroke:none;" d="M404 71.5193C391.609 73.4349 386.252 88.0283 385.329 99C384.737 106.027 389.174 113.305 397 112.294C409.463 110.684 414.397 93.4835 415.521 83C416.266 76.0472 411.202 70.4059 404 71.5193M475 71.5694C463.261 73.7073 457.508 87.2879 457.039 98C456.724 105.21 458.996 113.396 468 112.297C480.416 110.781 485.642 93.5096 486.695 83C487.396 76.0067 482.283 70.2431 475 71.5694M324 78L341 78C336.845 70.5728 328.428 71.1714 324 78z"/>
<path style="fill:#9e9eff; stroke:none;" d="M432 72L433 73L432 72M445 72L446 73L445 72M487 72L488 73L487 72z"/>
<path style="fill:#010101; stroke:none;" d="M527 83L552 83C548.498 68.4341 532.002 70.1258 527 83z"/>
<path style="fill:#9e9eff; stroke:none;" d="M359.333 73.6667L359.667 74.3333L359.333 73.6667M511 73L512 74L511 73M579 73L580 74L579 73M10 74L10 77L11 77L10 74z"/>
<path style="fill:#01fa06; stroke:none;" d="M67 75L63 82L70 79L67 75z"/>
<path style="fill:#9e9eff; stroke:none;" d="M510 75L511 76L510 75M433 76L434 77L433 76M569 76L569 81L570 81L569 76M111 77L112 78L111 77M489 77L490 78L489 77M388 78L389 79L388 78M418.333 78.6667L418.667 79.3333L418.333 78.6667M79.6667 79.3333L80.3333 79.6667L79.6667 79.3333M86 79L87 80L86 79M344 79L345 80L344 79M554 79L555 80L554 79M65 80L66 81L65 80M106 80L107 81L106 80M274 80L275 81L274 80M387 80L388 81L387 80M441 80L442 81L441 80M523 81L524 82L523 81M105 83L106 84L105 83M359 83L359 86L360 86L359 83M418 83L419 84L418 83M64 84L65 85L64 84M101 84L102 85L101 84M507 84L508 85L507 84M489 85L490 86L489 85z"/>
<path style="fill:#c6e5fe; stroke:none;" d="M80.3179 86.8009C76.727 88.2795 79.5863 93.1356 82.8665 92.2485C87.2517 91.0625 84.2576 85.1787 80.3179 86.8009z"/>
<path style="fill:#9e9eff; stroke:none;" d="M302 86L303 87L302 86M433 87L434 88L433 87M230 88L231 89L230 88M504 88L505 89L504 88M568 88L569 89L568 88M229 90L230 91L229 90M383 91L384 92L383 91z"/>
<path style="fill:#c6e5fe; stroke:none;" d="M695 91L695 105C692.428 103.559 690.008 102.319 687 102.12C664.319 100.625 674.334 145.639 694 130L695 130L701 132L701 91L695 91M729 91L729 106C701.94 84.3991 701.939 150.601 729 129C729.654 132.054 731.006 131.936 734 132L734 91L729 91M795 91L795 105C792.428 103.559 790.007 102.319 787 102.12C764.291 100.623 774.267 145.692 794 130L795 130L800 132L800 91L795 91M63.2137 93.0278C56.4474 97.0207 54.2848 119.478 65.8519 112.817C71.4776 109.577 76.4639 85.2088 63.2137 93.0278z"/>
<path style="fill:#9e9eff; stroke:none;" d="M228 92L229 93L228 92M253 92L254 93L253 92M432 92L433 93L432 92M366 93L367 94L366 93M505.333 93.6667L505.667 94.3333L505.333 93.6667z"/>
<path style="fill:#c6e5fe; stroke:none;" d="M598 93L598 132L604 132L604 102L605 102C605.836 106.858 610.193 125.976 616.91 124.623C622.461 123.506 625.855 107.833 627 103L628 103L628 132L634 132L634 93L625 93L616 117C611.375 106.614 611.264 93.0103 598 93z"/>
<path style="fill:#0106fa; stroke:none;" d="M343 94L325 94C316.923 94.013 301.129 100.863 309.742 111.606C316.726 120.316 333.015 114.602 338.034 106.996C340.646 103.038 342.039 98.593 343 94z"/>
<path style="fill:#9e9eff; stroke:none;" d="M357 96L358 97L357 96M252 97L253 98L252 97z"/>
<path style="fill:#010101; stroke:none;" d="M339 97L325 97.0008C300.767 97.1192 317.52 123.415 333.471 107.471C336.335 104.608 337.722 100.746 339 97z"/>
<path style="fill:#9e9eff; stroke:none;" d="M382 97L382 100L383 100L382 97M574 97L575 98L574 97M267 98L268 99L267 98M436 98L437 99L436 98M453 99L453 102L454 102L453 99M519 100L519 104L520 104L519 100M413 101L414 102L413 101M251 102L252 103L251 102M340 102L341 103L340 102M382.333 102.667L382.667 103.333L382.333 102.667M573 102L574 103L573 102z"/>
<path style="fill:#c6e5fe; stroke:none;" d="M651 102.573C634.036 107.44 640.997 138.378 659.996 132.347C676.312 127.168 669.292 97.324 651 102.573M768 126C758.652 127.374 751.265 129.839 747 119L769 119C768.9 114.17 768.47 108.843 764.772 105.279C755.233 96.0816 741.639 105.786 741.105 117C740.719 125.107 745.828 131.784 754 132.815C760.117 133.587 767.421 133.266 768 126z"/>
<path style="fill:#9e9eff; stroke:none;" d="M266 103L267 104L266 103M588 103L589 104L588 103M293 104L293 109L294 109L293 104M339 104L340 105L339 104M10 106L11 107L10 106M338 106L339 107L338 106M427 106L428 107L427 106M250 107L251 108L250 107M353 107L354 108L353 107M434 107L435 108L434 107M572 107L573 108L572 107z"/>
<path style="fill:#010101; stroke:none;" d="M652.109 108.032C643.292 112.85 648.446 132.875 658.786 126.82C666.858 122.094 662.413 102.401 652.109 108.032M684.109 108.032C675.868 112.543 680.466 133.014 690.786 126.971C698.847 122.252 694.464 102.363 684.109 108.032M718.214 107.747C709.432 111.529 712.892 132.014 723.786 127.254C732.38 123.499 728.559 103.292 718.214 107.747M747 115L763 115C761.334 104.242 749.802 105.768 747 115M784.109 108.032C775.88 112.537 780.404 132.985 790.775 126.82C798.671 122.127 794.364 102.418 784.109 108.032z"/>
<path style="fill:#9e9eff; stroke:none;" d="M130 108L131 109L130 108M426 108L427 109L426 108M587 108L588 109L587 108M352 109L353 110L352 109M425 110L426 111L425 110M175 111L176 112L175 111M362 111L363 112L362 111M477 111L478 112L477 111M521 111L522 112L521 111M571 112L572 113L571 112M13 113L14 114L13 113M311 113L312 114L311 113M403 113L404 114L403 113M42 114L43 115L42 114M313 114L314 115L313 114M349 114L350 115L349 114M401 114L402 115L401 114M555 114L556 115L555 114M217 115L218 116L217 115M317 115L317 116L320 116L317 115M323.667 115.333L324.333 115.667L323.667 115.333M393.667 115.333L394.333 115.667L393.667 115.333M464 115L464 116L467 116L464 115M528 116L529 117L528 116M534 116L535 117L534 116M216 117L217 118L216 117M263 117L264 118L263 117M570 117L571 118L570 117M144 118L145 119L144 118M215 119L216 120L215 119M21 121L22 122L21 121M431 121L432 122L431 121M486 121L487 122L486 121M145 122L146 123L145 122M262 122L263 123L262 122M584 122L585 123L584 122M300 123L301 124L300 123M483 123L484 124L483 123M512 124L513 125L512 124M155 125L155 126L158 126L155 125M359 125L360 126L359 125M405 126L406 127L405 126M430 126L431 127L430 126M545 126L546 127L545 126M387 128L388 129L387 128M397 128L398 129L397 128M458 128L459 129L458 128M468 128L469 129L468 128M247 129L247 130L260 130L247 129M316 129L316 130L319 130L316 129M321.667 129.333L322.333 129.667L321.667 129.333M524 129L524 130L527 130L524 129M531 129L531 130L535 130L531 129M569 129L569 130L582 130L569 129M358 130L359 131L358 130M133 133L134 134L133 133M373 133L374 134L373 133M62 135L63 136L62 135M134 135L135 136L134 135M101 136L102 137L101 136M106 136L107 137L106 136M161 137L162 138L161 137M372 137L373 138L372 137M74 140L75 141L74 140M79 141L79 142L83 142L79 141M107 141L108 142L107 141M159 141L160 142L159 141M442 142L443 143L442 142M137 144L138 145L137 144M157 144L158 145L157 144M355 144L356 145L355 144M426 145L427 146L426 145M133 146L134 147L133 146M440 149L441 150L440 149M134 150L135 151L134 150M110 151L111 152L110 151M128 153L129 154L128 153M126 155L127 156L126 155M122 157L123 158L122 157M116 159L117 160L116 159M120 159L121 160L120 159M136 161L137 162L136 161M134 162L135 163L134 162M123 163L124 164L123 163M132 163L133 164L132 163z"/>
</svg>
